<svg xmlns="http://www.w3.org/2000/svg">
  <symbol viewBox="0 0 36 25" width="36" height="25" id="upload">
    <path d="M23.4 0C18.2574 0 13.7574 3.0562 11.8116 7.65218C10.9098 7.34998 9.9594 7.19528 9 7.19528C4.0374 7.19528 0 11.23 0 16.1894C0 20.5317 3.0978 24.1671 7.2 25V21.2531C5.1084 20.5083 3.6 18.5314 3.6 16.1894C3.6 13.2141 6.0228 10.7929 9 10.7929C10.0242 10.7929 11.0322 11.0933 11.9142 11.66C12.4074 11.9783 13.023 12.0341 13.563 11.8146C14.1084 11.5952 14.508 11.1239 14.643 10.5537C15.5934 6.45956 19.1952 3.59764 23.4 3.59764C28.3626 3.59764 32.4 7.63239 32.4 12.5917C32.4 15.5184 30.9726 18.0979 28.8 19.742V23.9513C33.0498 21.9258 36 17.6033 36 12.5935C36 5.65009 30.3462 0 23.4 0Z"/>
    <path d="M23.7857 19.8702L18.3215 12.1794L12.8572 19.8702H16.5V25H20.1429V19.8702H23.7857Z"/>
  </symbol>
  <symbol viewBox="0 0 25 25" width="25" height="25" id="bell">
    <path d="M7.71533 22.2222C8.67783 23.8749 10.4501 24.9999 12.5001 24.9999C14.5501 24.9999 16.3223 23.8749 17.2848 22.2222H7.71533Z"/>
    <path fill-rule="evenodd" clip-rule="evenodd" d="M0 17.0542V20.8333H25V17.0542L24.05 16.7389C22.1264 16.0958 20.8333 14.3028 20.8333 12.275V8.33333C20.8333 3.7375 17.0958 0 12.5 0C7.90417 0 4.16667 3.7375 4.16667 8.33333V12.275C4.16667 14.3028 2.87361 16.0958 0.95 16.7389L0 17.0542ZM20.7861 18.0556H4.21528C5.90972 16.6639 6.94444 14.5639 6.94444 12.275V8.33333C6.94444 5.26944 9.43611 2.77778 12.5 2.77778C15.5639 2.77778 18.0556 5.26944 18.0556 8.33333V12.275C18.0556 14.5639 19.0903 16.6639 20.7861 18.0556Z"/>
  </symbol>
  <symbol viewBox="0 0 29 23" width="29" height="23" id="menu-lines">
    <rect y="20" width="29" height="3"/>
    <rect y="10" width="29" height="3"/>
    <rect width="29" height="3"/>
  </symbol>
  <symbol viewBox="0 0 16 16" width="16" height="16" id="search">
    <path fill-rule="evenodd" clip-rule="evenodd" d="M15.7043 15.7048C15.3108 16.0984 14.6725 16.0984 14.2783 15.7048L11.1859 12.6124C10.018 13.4849 8.57389 14.0072 7.00372 14.0072C3.13567 14.0072 0 10.8721 0 7.00394C0 3.13576 3.13567 0 7.00372 0C10.8718 0 14.0074 3.13576 14.0074 7.00394C14.0074 8.57349 13.4845 10.0183 12.612 11.1863L15.7043 14.2787C16.0986 14.6723 16.0986 15.3106 15.7043 15.7048ZM7.00372 2.00113C4.24092 2.00113 2.00106 4.24105 2.00106 7.00394C2.00106 9.76616 4.24092 12.0068 7.00372 12.0068C9.76652 12.0068 12.0064 9.76616 12.0064 7.00394C12.0064 4.24105 9.76652 2.00113 7.00372 2.00113Z"/>
  </symbol>
  <symbol width="18" height="5" viewBox="0 0 18 5" id="dots">
    <path fill-rule="evenodd" clip-rule="evenodd" d="M1.95898 4.10742C2.47982 4.10742 2.91276 3.9528 3.25781 3.64355C3.60286 3.33431 3.77539 2.9388 3.77539 2.45703C3.77539 1.97526 3.60286 1.57975 3.25781 1.27051C2.91276 0.961263 2.47982 0.806641 1.95898 0.806641C1.43164 0.806641 0.99707 0.962891 0.655273 1.27539C0.313477 1.58789 0.142578 1.98177 0.142578 2.45703C0.142578 2.93229 0.313477 3.32617 0.655273 3.63867C0.99707 3.95117 1.43164 4.10742 1.95898 4.10742ZM9.00391 4.10742C9.52474 4.10742 9.95768 3.9528 10.3027 3.64355C10.6478 3.33431 10.8203 2.9388 10.8203 2.45703C10.8203 1.97526 10.6478 1.57975 10.3027 1.27051C9.95768 0.961263 9.52474 0.806641 9.00391 0.806641C8.47656 0.806641 8.04199 0.962891 7.7002 1.27539C7.3584 1.58789 7.1875 1.98177 7.1875 2.45703C7.1875 2.93229 7.3584 3.32617 7.7002 3.63867C8.04199 3.95117 8.47656 4.10742 9.00391 4.10742ZM17.3477 3.64355C17.0026 3.9528 16.5697 4.10742 16.0488 4.10742C15.5215 4.10742 15.0869 3.95117 14.7451 3.63867C14.4033 3.32617 14.2324 2.93229 14.2324 2.45703C14.2324 1.98177 14.4033 1.58789 14.7451 1.27539C15.0869 0.962891 15.5215 0.806641 16.0488 0.806641C16.5697 0.806641 17.0026 0.961263 17.3477 1.27051C17.6927 1.57975 17.8652 1.97526 17.8652 2.45703C17.8652 2.9388 17.6927 3.33431 17.3477 3.64355Z"/>
  </symbol>
  <symbol  viewBox="0 0 24 24" width="48px" height="48px" id="user" fill="#fff">
    <path d="M0 0h24v24H0V0z" fill="#fff"/>
    <path d="M12 2C6.48 2 2 6.48 2 12s4.48 10 10 10 10-4.48 10-10S17.52 2 12 2zm0 3c1.66 0 3 1.34 3 3s-1.34 3-3 3-3-1.34-3-3 1.34-3 3-3zm0 14.2c-2.5 0-4.71-1.28-6-3.22.03-1.99 4-3.08 6-3.08 1.99 0 5.97 1.09 6 3.08-1.29 1.94-3.5 3.22-6 3.22z" fill="#fff"/>
  </symbol>
  <symbol width="13" height="8" viewBox="0 0 13 8" id="arrow">
      <path d="M12.2273 1.23442L6.49964 7.22729L0.772705 1.23442L1.73582 0.227295L6.49964 5.21305L11.2641 0.227295L12.2273 1.23442Z"/>
  </symbol>
  <symbol width="17" height="17" viewBox="0 0 17 17" fill="none" id="plus">
    <path d="M15.5061 7.42915H8.7247V0.647773C8.7247 0.290008 8.43469 0 8.07692 0C7.71916 0 7.42915 0.290008 7.42915 0.647773V7.42915H0.647773C0.290008 7.42915 0 7.71916 0 8.07692C0 8.43469 0.290008 8.7247 0.647773 8.7247H7.42915V15.5061C7.42915 15.8638 7.71916 16.1538 8.07692 16.1538C8.43469 16.1538 8.7247 15.8638 8.7247 15.5061V8.7247H15.5061C15.8638 8.7247 16.1538 8.43469 16.1538 8.07692C16.1538 7.71916 15.8638 7.42915 15.5061 7.42915Z" fill="white"/>
  </symbol>

  <symbol width="8" height="8" viewBox="0 0 9 9" id="expand">
    <path d="M6 6.99997H3.414L8.707 1.70697L7.293 0.292969L2 5.58597V2.99997H0V8.99997H6V6.99997Z" fill="#4A4A4A"/>
  </symbol>
  <symbol width="8" height="8" viewBox="0 0 9 9" id="expandInvert">
    <path d="M8.99997 0H2.99997V2H5.58597L0.292969 7.293L1.70697 8.707L6.99997 3.414V6H8.99997V0Z" fill="#4A4A4A"/>
  </symbol>

</svg>
