<svg xmlns="http://www.w3.org/2000/svg">
  <symbol viewBox="0 0 36 25" width="36" height="25" id="upload">
    <path d="M23.4 0C18.2574 0 13.7574 3.0562 11.8116 7.65218C10.9098 7.34998 9.9594 7.19528 9 7.19528C4.0374 7.19528 0 11.23 0 16.1894C0 20.5317 3.0978 24.1671 7.2 25V21.2531C5.1084 20.5083 3.6 18.5314 3.6 16.1894C3.6 13.2141 6.0228 10.7929 9 10.7929C10.0242 10.7929 11.0322 11.0933 11.9142 11.66C12.4074 11.9783 13.023 12.0341 13.563 11.8146C14.1084 11.5952 14.508 11.1239 14.643 10.5537C15.5934 6.45956 19.1952 3.59764 23.4 3.59764C28.3626 3.59764 32.4 7.63239 32.4 12.5917C32.4 15.5184 30.9726 18.0979 28.8 19.742V23.9513C33.0498 21.9258 36 17.6033 36 12.5935C36 5.65009 30.3462 0 23.4 0Z"/>
    <path d="M23.7857 19.8702L18.3215 12.1794L12.8572 19.8702H16.5V25H20.1429V19.8702H23.7857Z"/>
  </symbol>
  <symbol viewBox="0 0 25 25" width="25" height="25" id="bell">
    <path d="M7.71533 22.2222C8.67783 23.8749 10.4501 24.9999 12.5001 24.9999C14.5501 24.9999 16.3223 23.8749 17.2848 22.2222H7.71533Z"/>
    <path fill-rule="evenodd" clip-rule="evenodd" d="M0 17.0542V20.8333H25V17.0542L24.05 16.7389C22.1264 16.0958 20.8333 14.3028 20.8333 12.275V8.33333C20.8333 3.7375 17.0958 0 12.5 0C7.90417 0 4.16667 3.7375 4.16667 8.33333V12.275C4.16667 14.3028 2.87361 16.0958 0.95 16.7389L0 17.0542ZM20.7861 18.0556H4.21528C5.90972 16.6639 6.94444 14.5639 6.94444 12.275V8.33333C6.94444 5.26944 9.43611 2.77778 12.5 2.77778C15.5639 2.77778 18.0556 5.26944 18.0556 8.33333V12.275C18.0556 14.5639 19.0903 16.6639 20.7861 18.0556Z"/>
  </symbol>
  <symbol viewBox="0 0 29 23" width="29" height="23" id="menu-lines">
    <rect y="20" width="29" height="3"/>
    <rect y="10" width="29" height="3"/>
    <rect width="29" height="3"/>
  </symbol>
  <symbol viewBox="0 0 16 16" width="16" height="16" id="search" fill="#bbb">
    <path fill-rule="evenodd" clip-rule="evenodd" d="M15.7043 15.7048C15.3108 16.0984 14.6725 16.0984 14.2783 15.7048L11.1859 12.6124C10.018 13.4849 8.57389 14.0072 7.00372 14.0072C3.13567 14.0072 0 10.8721 0 7.00394C0 3.13576 3.13567 0 7.00372 0C10.8718 0 14.0074 3.13576 14.0074 7.00394C14.0074 8.57349 13.4845 10.0183 12.612 11.1863L15.7043 14.2787C16.0986 14.6723 16.0986 15.3106 15.7043 15.7048ZM7.00372 2.00113C4.24092 2.00113 2.00106 4.24105 2.00106 7.00394C2.00106 9.76616 4.24092 12.0068 7.00372 12.0068C9.76652 12.0068 12.0064 9.76616 12.0064 7.00394C12.0064 4.24105 9.76652 2.00113 7.00372 2.00113Z"/>
  </symbol>
</svg>
