<svg width="36" height="25" viewBox="0 0 36 25" fill="none" xmlns="http://www.w3.org/2000/svg">
<g opacity="0.6">
<path d="M23.4 0C18.2574 0 13.7574 3.0562 11.8116 7.65218C10.9098 7.34998 9.9594 7.19528 9 7.19528C4.0374 7.19528 0 11.23 0 16.1894C0 20.5317 3.0978 24.1671 7.2 25V21.2531C5.1084 20.5083 3.6 18.5314 3.6 16.1894C3.6 13.2141 6.0228 10.7929 9 10.7929C10.0242 10.7929 11.0322 11.0933 11.9142 11.66C12.4074 11.9783 13.023 12.0341 13.563 11.8146C14.1084 11.5952 14.508 11.1239 14.643 10.5537C15.5934 6.45956 19.1952 3.59764 23.4 3.59764C28.3626 3.59764 32.4 7.63239 32.4 12.5917C32.4 15.5184 30.9726 18.0979 28.8 19.742V23.9513C33.0498 21.9258 36 17.6033 36 12.5935C36 5.65009 30.3462 0 23.4 0Z" fill="white"/>
<path d="M23.7857 19.8702L18.3215 12.1794L12.8572 19.8702H16.5V25H20.1429V19.8702H23.7857Z" fill="white"/>
</g>
</svg>
