<svg>

<defs>
<symbol width="18" height="5" viewBox="0 0 18 5" fill="none" id="points">
<path fill-rule="evenodd" clip-rule="evenodd" d="M1.95898 4.10742C2.47982 4.10742 2.91276 3.9528 3.25781 3.64355C3.60286 3.33431 3.77539 2.9388 3.77539 2.45703C3.77539 1.97526 3.60286 1.57975 3.25781 1.27051C2.91276 0.961263 2.47982 0.806641 1.95898 0.806641C1.43164 0.806641 0.99707 0.962891 0.655273 1.27539C0.313477 1.58789 0.142578 1.98177 0.142578 2.45703C0.142578 2.93229 0.313477 3.32617 0.655273 3.63867C0.99707 3.95117 1.43164 4.10742 1.95898 4.10742ZM9.00391 4.10742C9.52474 4.10742 9.95768 3.9528 10.3027 3.64355C10.6478 3.33431 10.8203 2.9388 10.8203 2.45703C10.8203 1.97526 10.6478 1.57975 10.3027 1.27051C9.95768 0.961263 9.52474 0.806641 9.00391 0.806641C8.47656 0.806641 8.04199 0.962891 7.7002 1.27539C7.3584 1.58789 7.1875 1.98177 7.1875 2.45703C7.1875 2.93229 7.3584 3.32617 7.7002 3.63867C8.04199 3.95117 8.47656 4.10742 9.00391 4.10742ZM17.3477 3.64355C17.0026 3.9528 16.5697 4.10742 16.0488 4.10742C15.5215 4.10742 15.0869 3.95117 14.7451 3.63867C14.4033 3.32617 14.2324 2.93229 14.2324 2.45703C14.2324 1.98177 14.4033 1.58789 14.7451 1.27539C15.0869 0.962891 15.5215 0.806641 16.0488 0.806641C16.5697 0.806641 17.0026 0.961263 17.3477 1.27051C17.6927 1.57975 17.8652 1.97526 17.8652 2.45703C17.8652 2.9388 17.6927 3.33431 17.3477 3.64355Z" fill="white"/>
</symbol>

</defs>
</svg>
